<?xml version="1.0" encoding="UTF-8"?>
<svg version="1.1" xmlns="http://www.w3.org/2000/svg" width="512" height="512">
<path d="M0 0 C1.01201477 0.00054382 2.02402954 0.00108765 3.06671143 0.00164795 C19.59887291 0.04238923 35.523992 0.95817716 51.75 4.375 C52.78125 4.58930664 53.8125 4.80361328 54.875 5.02441406 C101.10680927 14.94980561 143.72188765 37.60106665 177.75 70.375 C178.7390332 71.32318604 178.7390332 71.32318604 179.74804688 72.29052734 C189.23630305 81.43497479 197.9762044 90.73234009 205.75 101.375 C206.60806152 102.52605017 207.46613451 103.67709177 208.32421875 104.828125 C214.36236829 113.01930614 219.72095521 121.53304105 224.75 130.375 C225.11448242 131.00680176 225.47896484 131.63860352 225.85449219 132.28955078 C240.78473018 158.37464001 250.26385054 187.71085114 254.75 217.375 C254.92660156 218.49745117 255.10320312 219.61990234 255.28515625 220.77636719 C256.9420586 232.38947743 257.14873513 243.90679945 257.125 255.625 C257.12418427 257.14302216 257.12418427 257.14302216 257.12335205 258.69171143 C257.08261077 275.22387291 256.16682284 291.148992 252.75 307.375 C252.42854004 308.921875 252.42854004 308.921875 252.10058594 310.5 C242.17519439 356.73180927 219.52393335 399.34688765 186.75 433.375 C186.11787598 434.03435547 185.48575195 434.69371094 184.83447266 435.37304688 C175.69002521 444.86130305 166.39265991 453.6012044 155.75 461.375 C154.59894983 462.23306152 153.44790823 463.09113451 152.296875 463.94921875 C144.10569386 469.98736829 135.59195895 475.34595521 126.75 480.375 C126.11819824 480.73948242 125.48639648 481.10396484 124.83544922 481.47949219 C98.75035999 496.40973018 69.41414886 505.88885054 39.75 510.375 C38.62754883 510.55160156 37.50509766 510.72820312 36.34863281 510.91015625 C24.73552257 512.5670586 13.21820055 512.77373513 1.5 512.75 C-0.01802216 512.74918427 -0.01802216 512.74918427 -1.56671143 512.74835205 C-18.09887291 512.70761077 -34.023992 511.79182284 -50.25 508.375 C-51.796875 508.05354004 -51.796875 508.05354004 -53.375 507.72558594 C-99.60680927 497.80019439 -142.22188765 475.14893335 -176.25 442.375 C-176.90935547 441.74287598 -177.56871094 441.11075195 -178.24804688 440.45947266 C-187.73630305 431.31502521 -196.4762044 422.01765991 -204.25 411.375 C-205.10806152 410.22394983 -205.96613451 409.07290823 -206.82421875 407.921875 C-212.86236829 399.73069386 -218.22095521 391.21695895 -223.25 382.375 C-223.61448242 381.74319824 -223.97896484 381.11139648 -224.35449219 380.46044922 C-239.28473018 354.37535999 -248.76385054 325.03914886 -253.25 295.375 C-253.51490234 293.69132324 -253.51490234 293.69132324 -253.78515625 291.97363281 C-255.4420586 280.36052257 -255.64873513 268.84320055 -255.625 257.125 C-255.62445618 256.11298523 -255.62391235 255.10097046 -255.62335205 254.05828857 C-255.58261077 237.52612709 -254.66682284 221.601008 -251.25 205.375 C-251.03569336 204.34375 -250.82138672 203.3125 -250.60058594 202.25 C-240.67519439 156.01819073 -218.02393335 113.40311235 -185.25 79.375 C-184.61787598 78.71564453 -183.98575195 78.05628906 -183.33447266 77.37695312 C-174.19002521 67.88869695 -164.89265991 59.1487956 -154.25 51.375 C-153.09894983 50.51693848 -151.94790823 49.65886549 -150.796875 48.80078125 C-142.60569386 42.76263171 -134.09195895 37.40404479 -125.25 32.375 C-124.61819824 32.01051758 -123.98639648 31.64603516 -123.33544922 31.27050781 C-97.25035999 16.34026982 -67.91414886 6.86114946 -38.25 2.375 C-37.12754883 2.19839844 -36.00509766 2.02179687 -34.84863281 1.83984375 C-23.23552257 0.1829414 -11.71820055 -0.02373513 0 0 Z M-220.97300148 204.63913822 C-222.54017037 206.76943715 -222.62687818 207.87856942 -222.63095093 210.50523376 C-222.6394104 211.34499252 -222.64786987 212.18475128 -222.65658569 213.04995728 C-222.650513 213.96796112 -222.64444031 214.88596497 -222.63818359 215.83178711 C-222.64344055 216.80115707 -222.64869751 217.77052704 -222.65411377 218.76927185 C-222.66734041 221.98045871 -222.65856542 225.19115165 -222.6484375 228.40234375 C-222.65045763 230.63049922 -222.65336856 232.85865405 -222.65713501 235.08680725 C-222.66156212 239.7600025 -222.65511537 244.43302588 -222.64111328 249.10620117 C-222.62403124 255.09986287 -222.63385414 261.09312129 -222.65183067 267.08676815 C-222.66266644 271.68924503 -222.65922291 276.29162616 -222.6514473 280.89410591 C-222.64944421 283.10413218 -222.65190835 285.31416711 -222.65888596 287.52418327 C-222.66649575 290.61262943 -222.65490196 293.70042101 -222.63818359 296.78881836 C-222.64425629 297.70479797 -222.65032898 298.62077759 -222.65658569 299.56451416 C-222.60983071 304.43597393 -222.60983071 304.43597393 -220.93592834 308.94277954 C-218.19887514 311.26794573 -215.14285715 310.92502351 -211.72265625 310.87109375 C-210.60642128 310.8732766 -210.60642128 310.8732766 -209.46763611 310.87550354 C-207.88813375 310.873843 -206.30861548 310.86226417 -204.72924805 310.84155273 C-202.35197064 310.81297449 -199.97697915 310.82086341 -197.59960938 310.83398438 C-181.45449854 310.81353559 -166.0305082 307.59305606 -153.80078125 296.15234375 C-141.23373608 281.74930709 -139.53963142 265.62991136 -140.25 247.375 C-141.31908476 233.73653301 -146.09789884 222.67110612 -156.25 213.375 C-163.49676783 207.53453563 -173.96199949 203.306197 -183.32836914 203.21386719 C-184.51463646 203.19945587 -184.51463646 203.19945587 -185.72486877 203.18475342 C-186.56976364 203.18050354 -187.41465851 203.17625366 -188.28515625 203.171875 C-189.16022324 203.16617493 -190.03529022 203.16047485 -190.93687439 203.15460205 C-192.78350623 203.14517169 -194.63015475 203.13862589 -196.47680664 203.13476562 C-199.30579623 203.12502309 -202.13407028 203.09396685 -204.96289062 203.0625 C-206.75780819 203.05597314 -208.55273094 203.05072142 -210.34765625 203.046875 C-211.19457535 203.0345282 -212.04149445 203.0221814 -212.91407776 203.00946045 C-217.20099947 202.90353324 -217.20099947 202.90353324 -220.97300148 204.63913822 Z M-94.75 205.125 C-96.56485326 209.05718206 -97.90695155 213.04061153 -99.19921875 217.171875 C-100.16035917 220.10174542 -101.26586856 222.86426954 -102.5 225.6875 C-105.44854974 232.57654985 -107.82653607 239.65298878 -110.21972656 246.7512207 C-112.23057714 252.65746018 -114.48605522 258.39564765 -116.92041016 264.13916016 C-119.44838651 270.29152861 -121.67310551 276.55951772 -123.9375 282.8125 C-124.66716994 284.82060391 -125.39763731 286.82841393 -126.12886047 288.83595276 C-126.78489222 290.63806423 -127.43877933 292.440956 -128.0925293 294.24389648 C-128.81474235 296.19757343 -129.57463 298.13821773 -130.38989258 300.05493164 C-131.56676175 303.22943851 -131.44340128 306.02271112 -131.25 309.375 C-130.15801858 310.67456335 -130.15801858 310.67456335 -127.5 310.6875 C-123.24029443 310.27791293 -122.23187373 309.4824263 -119.25 306.375 C-117.34162224 302.61106765 -115.89147369 298.70790507 -114.4375 294.75 C-114.03080078 293.6878125 -113.62410156 292.625625 -113.20507812 291.53125 C-111.09991768 286.58508857 -111.09991768 286.58508857 -110.25 281.375 C-96.06 281.375 -81.87 281.375 -67.25 281.375 C-66.26 284.675 -65.27 287.975 -64.25 291.375 C-63.32894104 294.02744847 -62.39064087 296.63678349 -61.375 299.25 C-61.02888672 300.20519531 -61.02888672 300.20519531 -60.67578125 301.1796875 C-58.99606944 305.49124724 -57.2145911 307.96643639 -53.25 310.375 C-50.89136678 310.92382329 -50.89136678 310.92382329 -48.5625 310.75 C-47.79550781 310.73710937 -47.02851563 310.72421875 -46.23828125 310.7109375 C-44.02282562 310.53410741 -44.02282562 310.53410741 -42.25 308.375 C-42.0221628 302.49755977 -43.85341594 296.95781547 -46 291.5625 C-46.63995475 289.88875899 -47.27778386 288.21420445 -47.9140625 286.5390625 C-48.46175293 285.10481934 -48.46175293 285.10481934 -49.02050781 283.64160156 C-51.25860887 277.69525681 -53.39761755 271.71292477 -55.54830933 265.73452759 C-56.37856941 263.42758209 -57.21060559 261.12128486 -58.04321289 258.81518555 C-60.70040457 251.45466269 -63.35263314 244.0923826 -65.99676514 236.72715759 C-67.18868311 233.40796669 -68.3824182 230.08943075 -69.57635498 226.77096558 C-70.1471442 225.18285754 -70.71702008 223.59442092 -71.28594971 222.00564575 C-72.07773748 219.79462624 -72.87253462 217.58470983 -73.66796875 215.375 C-74.01711082 214.39623146 -74.01711082 214.39623146 -74.37330627 213.39768982 C-76.11570581 207.43598996 -76.11570581 207.43598996 -80.25 203.375 C-87.88665408 202.48665481 -87.88665408 202.48665481 -94.75 205.125 Z M-23.99925232 204.81869507 C-25.91390799 208.7319094 -25.66739812 212.44433827 -25.63818359 216.74584961 C-25.64344055 217.69425217 -25.64869751 218.64265472 -25.65411377 219.61979675 C-25.66732065 222.75581315 -25.65857238 225.89132216 -25.6484375 229.02734375 C-25.6504582 231.20683388 -25.65336961 233.38632335 -25.65713501 235.56581116 C-25.66155944 240.13467849 -25.65512397 244.70336991 -25.64111328 249.2722168 C-25.62403162 255.12787113 -25.63385557 260.98311265 -25.65183067 266.83875179 C-25.66267385 271.3400432 -25.6592195 275.84123684 -25.6514473 280.3425312 C-25.64944625 282.50149141 -25.65190121 284.66046049 -25.65888596 286.81941032 C-25.6665079 289.83809778 -25.65488493 292.85611806 -25.63818359 295.87475586 C-25.64425629 296.76686768 -25.65032898 297.65897949 -25.65658569 298.578125 C-25.60821089 303.29970701 -25.39268596 306.57763998 -22.25 310.375 C-18.27888575 311.48661946 -14.36679066 310.9613151 -10.75 309.0625 C-8.29374118 306.29920883 -8.12585208 303.71625603 -8.13647461 300.17895508 C-8.13655014 299.33831009 -8.13662567 298.4976651 -8.13670349 297.63154602 C-8.14186478 296.72833115 -8.14702606 295.82511627 -8.15234375 294.89453125 C-8.1537587 293.96654221 -8.15517365 293.03855316 -8.15663147 292.08244324 C-8.16223063 289.11742942 -8.17478296 286.15249101 -8.1875 283.1875 C-8.19251511 281.17773547 -8.197078 279.16796975 -8.20117188 277.15820312 C-8.21219979 272.23043968 -8.22946383 267.30273263 -8.25 262.375 C-3.34755139 261.9808528 0.98916498 262.06455522 5.75 263.375 C9.54995971 266.96442945 11.69559267 271.30969152 14 275.9375 C14.66604605 277.17740706 15.33755822 278.41439283 16.0144043 279.6484375 C17.34648392 282.08687973 18.65492869 284.53558099 19.94482422 286.99658203 C22.30329831 291.41050744 24.88011179 295.65262812 27.5625 299.875 C28.14789551 300.82354858 28.14789551 300.82354858 28.74511719 301.79125977 C32.18901493 307.37713547 32.18901493 307.37713547 37.75 310.375 C39.70586747 310.56959037 39.70586747 310.56959037 41.75 310.5625 C42.430625 310.57667969 43.11125 310.59085937 43.8125 310.60546875 C46.07614132 310.48440411 46.07614132 310.48440411 48.75 308.375 C49.88555487 303.0893597 47.51219006 299.74684606 44.78588867 295.4440918 C44.21717041 294.5756665 43.64845215 293.70724121 43.0625 292.8125 C41.87719922 290.95338312 40.69231641 289.0939997 39.5078125 287.234375 C38.58403809 285.79868164 38.58403809 285.79868164 37.64160156 284.33398438 C34.51650971 279.44548241 31.48107934 274.501996 28.4375 269.5625 C27.33765799 267.7848973 26.2374366 266.00752925 25.13671875 264.23046875 C24.34114583 262.9453125 23.54557292 261.66015625 22.75 260.375 C23.801875 260.2615625 24.85375 260.148125 25.9375 260.03125 C34.53014549 258.55218807 40.29890783 253.46649689 45.375 246.62109375 C50.06253491 238.96389894 50.08384873 229.17364775 48.09765625 220.5390625 C44.90268109 212.5036314 38.73955038 208.47687787 31.05859375 205.13671875 C24.96190077 203.12511954 18.77514955 203.18640654 12.42578125 203.13671875 C10.95095528 203.12461113 10.95095528 203.12461113 9.44633484 203.11225891 C7.37626889 203.09847635 5.30618077 203.08772835 3.23608398 203.07983398 C1.11492274 203.06824829 -1.00620791 203.04769433 -3.12719727 203.01831055 C-6.19307239 202.97585741 -9.25808714 202.95950266 -12.32421875 202.94921875 C-13.27423264 202.93171066 -14.22424652 202.91420258 -15.20304871 202.89616394 C-16.0843898 202.89908951 -16.9657309 202.90201508 -17.8737793 202.9050293 C-18.6484404 202.89916306 -19.4231015 202.89329681 -20.22123718 202.88725281 C-22.34932712 203.24200137 -22.34932712 203.24200137 -23.99925232 204.81869507 Z M156.4375 214.8125 C151.77572484 221.89149191 150.63985963 227.92499952 151.75 236.375 C154.1167466 244.42422514 158.91325684 248.86087643 165.75 253.375 C169.35089656 255.27057829 173.04633339 256.83895878 176.8125 258.375 C177.81458496 258.79869873 178.81666992 259.22239746 179.84912109 259.65893555 C183.65452591 261.26708879 187.47140887 262.84669922 191.28955078 264.42431641 C192.80363599 265.05226199 194.315899 265.68462709 195.82592773 266.32226562 C197.73587923 267.12875533 199.65285167 267.91856163 201.5703125 268.70703125 C204.99262094 270.50227167 207.17302409 272.51955966 209.75 275.375 C210.08 275.705 210.41 276.035 210.75 276.375 C211.4953001 283.02946514 211.63949153 289.19449059 207.4453125 294.68359375 C201.6419755 300.473559 195.88553811 301.6233172 187.88867188 301.7578125 C181.08912154 301.73901623 174.46300743 301.49536512 167.75 300.375 C167.79640625 299.41078125 167.8428125 298.4465625 167.890625 297.453125 C167.92671875 296.18984375 167.9628125 294.9265625 168 293.625 C168.06960938 291.74554688 168.06960938 291.74554688 168.140625 289.828125 C168.02965788 286.35349656 168.02965788 286.35349656 166.0234375 283.9453125 C163.44739994 282.16598759 162.2183473 281.88619793 159.125 282 C157.96097656 282.01933594 157.96097656 282.01933594 156.7734375 282.0390625 C154.52668954 282.21047871 154.52668954 282.21047871 152.75 284.375 C152.30639928 287.33352109 152.42587348 290.32448451 152.4375 293.3125 C152.42138672 294.13685547 152.40527344 294.96121094 152.38867188 295.81054688 C152.38802734 296.60396484 152.38738281 297.39738281 152.38671875 298.21484375 C152.38373779 298.94050537 152.38075684 299.66616699 152.37768555 300.41381836 C152.86035046 302.95627559 153.72755167 303.79993108 155.75 305.375 C158.16398692 306.20543441 160.46991717 306.89222098 162.9375 307.5 C164.20980469 307.83257812 165.48210937 308.16515625 166.79296875 308.5078125 C183.33504224 312.34640616 201.8813353 312.63739593 216.625 303.5625 C223.15944531 298.83923246 227.96664838 293.38522105 229.75 285.375 C230.67910582 277.90344074 228.89974288 272.11563054 224.5625 265.9375 C216.46586813 257.0904486 202.05589402 253.14651178 191.10913086 249.16430664 C174.02551329 242.92602658 174.02551329 242.92602658 169.75 234.375 C169.3440713 228.4890339 169.76896599 223.569563 172.75 218.375 C176.6216498 213.98045497 181.16921913 211.58694819 186.984375 211.109375 C193.89526788 211.14009008 200.07964614 211.53490238 206.75 213.375 C206.71519531 214.11105469 206.68039062 214.84710938 206.64453125 215.60546875 C206.28476555 223.02902142 206.28476555 223.02902142 209.75 229.375 C212.85920609 230.92960305 216.38083028 231.10220693 219.75 230.375 C222.41239292 227.97824265 222.74406439 226.4197149 223.21875 222.84375 C223.2290625 221.5340625 223.239375 220.224375 223.25 218.875 C223.2809375 217.5653125 223.311875 216.255625 223.34375 214.90625 C223.06672192 211.2828955 223.06672192 211.2828955 220.55859375 209.01171875 C217.77330024 207.3885783 215.43427385 206.45355231 212.3125 205.6875 C211.40628906 205.45675781 210.50007813 205.22601563 209.56640625 204.98828125 C202.64257647 203.48059571 196.07188101 203.15975126 189 203.125 C187.96617187 203.104375 186.93234375 203.08375 185.8671875 203.0625 C173.70478444 203.00122845 164.86217137 205.93244099 156.4375 214.8125 Z M71.75 246.375 C63.84073544 257.76703731 64.12027026 274.69506164 66.33203125 287.83203125 C68.7734553 295.62452172 74.18259527 302.34076628 80.97265625 306.8515625 C90.29390007 311.69512471 101.92725872 311.69655782 112.09765625 309.7265625 C120.79558203 306.86395402 127.24657554 301.34259712 131.75 293.375 C136.81328981 282.7154425 136.84805281 265.18951795 133.25 254.0625 C129.84369802 246.6022189 124.34671694 240.29912044 116.72265625 237.08203125 C100.5006988 231.26782472 83.4702046 233.01885018 71.75 246.375 Z " fill="#550000" transform="translate(255.25,-0.375)"/>
<path d="M0 0 C0.87165802 -0.00615326 1.74331604 -0.01230652 2.64138794 -0.01864624 C3.58199066 -0.00427521 4.52259338 0.01009583 5.49169922 0.02490234 C6.95154739 0.02627701 6.95154739 0.02627701 8.44088745 0.02767944 C10.50377261 0.03372557 12.56664859 0.04950175 14.62939453 0.07421875 C17.76351888 0.11045978 20.89645081 0.11523984 24.03076172 0.11474609 C26.0385843 0.12458807 28.04639894 0.13624974 30.05419922 0.14990234 C31.44688522 0.15324081 31.44688522 0.15324081 32.8677063 0.15664673 C43.12167115 0.30356097 52.69915429 2.02405463 60.49951172 9.15771484 C66.82743695 16.10000175 67.20696777 23.60809702 66.98779297 32.62646484 C66.58994341 37.47924706 65.54744174 40.61313209 62.67138672 44.48583984 C61.61951172 46.03271484 61.61951172 46.03271484 60.54638672 47.61083984 C55.21954403 53.6117583 48.53019237 56.66520289 40.67138672 57.48583984 C42.39858775 60.29777205 44.12636981 63.10934417 45.85498047 65.92041016 C47.32058667 68.3039157 48.78382586 70.68885303 50.24560547 73.07470703 C53.43326434 78.27115841 56.62664637 83.45927617 59.96044922 88.56396484 C60.42660645 89.28326172 60.89276367 90.00255859 61.37304688 90.74365234 C62.21292767 92.03237504 63.06352226 93.31420545 63.92675781 94.58740234 C66.35366306 98.32989557 67.39331034 101.02538315 66.67138672 105.48583984 C63.04225717 107.90525955 59.89761959 108.2056927 55.67138672 107.48583984 C46.72979404 103.0354581 42.47967948 92.51148016 37.73388672 84.17333984 C37.20835205 83.25987793 36.68281738 82.34641602 36.14135742 81.40527344 C33.85062248 77.40745757 31.60594431 73.42634716 29.61279297 69.27099609 C27.83893664 65.81865205 26.38311084 63.25763468 23.67138672 60.48583984 C20.1774897 59.63885486 20.1774897 59.63885486 16.41357422 59.65771484 C15.1514209 59.61227539 13.88926758 59.56683594 12.58886719 59.52001953 C11.62609863 59.50874023 10.66333008 59.49746094 9.67138672 59.48583984 C9.68709717 60.73196045 9.70280762 61.97808105 9.71899414 63.26196289 C9.77336745 67.89308182 9.80776383 72.52417262 9.83618164 77.15551758 C9.85125137 79.15849556 9.87171082 81.16144064 9.89770508 83.16430664 C9.93416799 86.04630665 9.95113132 88.92786969 9.96435547 91.81005859 C9.97983932 92.7029509 9.99532318 93.5958432 10.01127625 94.51579285 C10.01257159 99.32057052 9.85330425 102.60864843 6.67138672 106.48583984 C4.36929039 107.63688801 2.79733136 107.75139886 0.23388672 107.86083984 C-0.54857422 107.90982422 -1.33103516 107.95880859 -2.13720703 108.00927734 C-4.32861328 107.48583984 -4.32861328 107.48583984 -5.9413147 105.54689026 C-7.86561404 101.30095692 -7.74818213 97.59626161 -7.71679688 92.9855957 C-7.72205383 92.03544083 -7.72731079 91.08528595 -7.73272705 90.1063385 C-7.74591277 86.97095216 -7.73719456 83.83607494 -7.72705078 80.70068359 C-7.72907175 78.52022708 -7.73198339 76.33977122 -7.73574829 74.15931702 C-7.74016957 69.59222979 -7.73374612 65.0253187 -7.71972656 60.45825195 C-7.7026248 54.60140707 -7.71248358 48.7449743 -7.73044395 42.88814449 C-7.74127832 38.38689563 -7.73783719 33.88574467 -7.73006058 29.38449287 C-7.72805814 27.22470615 -7.73051935 25.06491057 -7.73749924 22.9051342 C-7.74510897 19.8887459 -7.73351632 16.87302777 -7.71679688 13.85668945 C-7.72286957 12.96255341 -7.72894226 12.06841736 -7.73519897 11.14718628 C-7.69890562 7.61690184 -7.64418005 5.12902164 -6.07489014 1.93052673 C-3.8954606 0.12749461 -2.8106183 -0.01046269 0 0 Z M9.67138672 8.48583984 C9.67138672 22.67583984 9.67138672 36.86583984 9.67138672 51.48583984 C28.64365132 52.62697163 28.64365132 52.62697163 43.60888672 44.98583984 C44.28951172 44.16083984 44.97013672 43.33583984 45.67138672 42.48583984 C46.53763672 41.46490234 46.53763672 41.46490234 47.42138672 40.42333984 C51.08237579 34.74880678 50.30459524 26.92585836 49.67138672 20.48583984 C48.02271405 15.7743313 45.80431747 13.20259195 41.60888672 10.54833984 C37.1519807 8.93626745 33.57374837 8.36388902 28.81201172 8.38818359 C27.80686523 8.39068115 26.80171875 8.39317871 25.76611328 8.39575195 C23.86297363 8.40940796 23.86297363 8.40940796 21.92138672 8.42333984 C15.85763672 8.45427734 15.85763672 8.45427734 9.67138672 8.48583984 Z " fill="#FAF7F7" transform="translate(237.32861328125,202.51416015625)"/>
<path d="M0 0 C0.8527652 -0.00524185 1.7055304 -0.0104837 2.58413696 -0.0158844 C4.39478469 -0.02231275 6.20547413 -0.0209571 8.01611328 -0.01245117 C10.74460856 -0.00404324 13.47093598 -0.03252167 16.19921875 -0.06445312 C31.62973636 -0.12644826 45.77377967 2.21718978 57.6015625 12.99609375 C69.68320144 25.70472393 70.86006663 42.21987454 70.625 58.76953125 C70.22469197 71.06047034 65.59898144 83.83984607 57.09375 92.91796875 C43.76479379 104.94502691 28.26932032 107.80775048 10.94628906 107.80419922 C8.52339879 107.80862235 6.10226262 107.84517362 3.6796875 107.8828125 C2.13542285 107.88867282 0.59114962 107.89264746 -0.953125 107.89453125 C-1.67498993 107.90890228 -2.39685486 107.92327332 -3.14059448 107.93807983 C-8.04364658 107.89314763 -8.04364658 107.89314763 -10.27484131 106.00236511 C-12.29821053 102.03806947 -12.0032239 98.23715852 -11.97412109 93.84741211 C-11.97937805 92.87628983 -11.98463501 91.90516754 -11.99005127 90.90461731 C-12.00325718 87.69406053 -11.99451159 84.48399933 -11.984375 81.2734375 C-11.9863954 79.04431564 -11.98930654 76.81519442 -11.99307251 74.58607483 C-11.99749653 69.91465969 -11.99106153 65.24341663 -11.97705078 60.57202148 C-11.9599491 54.57716922 -11.96980603 48.58271957 -11.98776817 42.58788204 C-11.99859534 37.98544771 -11.99516472 33.38310925 -11.9873848 28.78067207 C-11.98538035 26.56981929 -11.98785058 24.35895786 -11.99482346 22.14811516 C-12.00242134 19.0619682 -11.99085721 15.9764787 -11.97412109 12.89038086 C-11.98019379 11.97237701 -11.98626648 11.05437317 -11.99252319 10.10855103 C-11.98406372 9.26879227 -11.97560425 8.42903351 -11.96688843 7.56382751 C-11.96575735 6.83435378 -11.96462627 6.10488005 -11.96346092 5.35330105 C-10.75459392 -0.79378987 -5.09631158 -0.01827433 0 0 Z M4.4140625 7.43359375 C4.4140625 37.79359375 4.4140625 68.15359375 4.4140625 99.43359375 C24.79548491 99.75258366 24.79548491 99.75258366 41.15234375 89.75390625 C52.70336987 77.43610966 53.99309159 63.44050561 53.6640625 47.26171875 C53.24335622 36.43273919 50.17369654 26.78818205 42.9140625 18.62109375 C42.0890625 17.89921875 41.2640625 17.17734375 40.4140625 16.43359375 C39.6921875 15.75296875 38.9703125 15.07234375 38.2265625 14.37109375 C27.61667401 7.06205945 17.30247362 7.43359375 4.4140625 7.43359375 Z " fill="#FDFCFC" transform="translate(44.5859375,202.56640625)"/>
<path d="M0 0 C15.35170093 0 26.23970018 0.30802942 37.5625 10.25 C49.02534075 23.18243572 49.91850982 38.45365473 49 55 C47.39972908 67.42415058 42.92111698 78.06310641 33 86 C22.5201159 92.71992568 12.74712687 92 0 92 C0 61.64 0 31.28 0 0 Z " fill="#570404" transform="translate(49,210)"/>
<path d="M0 0 C2.6640625 1.953125 2.6640625 1.953125 3.6640625 2.953125 C3.81792037 5.40597445 3.89569544 7.81132714 3.9140625 10.265625 C3.9346875 10.94302734 3.9553125 11.62042969 3.9765625 12.31835938 C4.00074954 15.41127719 3.82798981 17.63687138 2.39453125 20.40234375 C-0.01456947 22.56128954 -2.25293986 22.50189878 -5.3984375 22.3515625 C-8.3217749 21.75039231 -9.60530874 20.30678011 -11.3359375 17.953125 C-12.65822939 15.30854121 -12.43270944 13.27551199 -12.3984375 10.328125 C-12.38941406 9.32523438 -12.38039063 8.32234375 -12.37109375 7.2890625 C-12.35949219 6.51820313 -12.34789062 5.74734375 -12.3359375 4.953125 C-21.02421405 2.55635905 -31.48359254 0.72678537 -39.9609375 4.640625 C-44.18695554 7.21416163 -46.57790184 10.24754477 -48.5859375 14.765625 C-49.86421037 20.1982847 -50.2691172 24.15589002 -47.6484375 29.203125 C-43.44712962 34.19927491 -39.04035018 36.74381272 -32.98046875 38.9765625 C-32.27879074 39.24522125 -31.57711273 39.51388 -30.85417175 39.79067993 C-27.87947313 40.92942224 -24.8970698 42.04729583 -21.91479492 43.16601562 C4.42495636 53.08953943 4.42495636 53.08953943 10.0390625 64.828125 C11.85055852 73.88560509 10.32458363 80.38587003 5.26171875 88.0859375 C-0.76855527 95.84125324 -9.92512165 99.80180071 -19.3359375 101.953125 C-22.63252769 102.25086306 -25.90233566 102.2860109 -29.2109375 102.265625 C-30.12697754 102.26216064 -31.04301758 102.25869629 -31.98681641 102.25512695 C-37.98522075 102.16106083 -43.80207179 101.67716339 -49.7109375 100.640625 C-50.38108887 100.52307861 -51.05124023 100.40553223 -51.74169922 100.28442383 C-57.02185601 99.23921192 -62.45526194 97.83380056 -66.3359375 93.953125 C-66.59472656 92.10546875 -66.59472656 92.10546875 -66.6015625 89.890625 C-66.60414063 89.09398437 -66.60671875 88.29734375 -66.609375 87.4765625 C-66.60164063 86.64382813 -66.59390625 85.81109375 -66.5859375 84.953125 C-66.59367187 84.12039063 -66.60140625 83.28765625 -66.609375 82.4296875 C-66.60679687 81.63304687 -66.60421875 80.83640625 -66.6015625 80.015625 C-66.59930664 79.28472656 -66.59705078 78.55382812 -66.59472656 77.80078125 C-66.3359375 75.953125 -66.3359375 75.953125 -64.3359375 73.953125 C-62.3125 73.6171875 -62.3125 73.6171875 -59.9609375 73.578125 C-59.19007813 73.54976563 -58.41921875 73.52140625 -57.625 73.4921875 C-54.35635252 74.15037931 -53.26002201 75.24547666 -51.3359375 77.953125 C-50.9453125 81.40625 -50.9453125 81.40625 -51.0859375 85.203125 C-51.12203125 86.46640625 -51.158125 87.7296875 -51.1953125 89.03125 C-51.26492188 90.47757813 -51.26492188 90.47757813 -51.3359375 91.953125 C-40.22323876 93.80777513 -25.02575107 95.90051402 -15.15625 89.55078125 C-10.90657446 85.8209158 -8.74791496 82.596647 -7.8671875 76.9453125 C-7.46619367 70.63130772 -7.46619367 70.63130772 -10.51171875 65.2890625 C-13.32196359 62.96468295 -15.87730345 61.36621764 -19.1484375 59.765625 C-19.72811279 59.48082275 -20.30778809 59.19602051 -20.9050293 58.90258789 C-28.02369084 55.48861859 -35.37702059 52.57291344 -42.7199707 49.6809082 C-53.04601486 45.52019697 -61.59143429 40.97326662 -66.4375 30.59375 C-68.68028252 24.00191963 -68.20068119 16.94884847 -65.3359375 10.640625 C-61.17247547 3.32516347 -55.24292703 -1.36148233 -47.3359375 -4.046875 C-33.71929595 -7.23535248 -12.16092445 -7.46173819 0 0 Z " fill="#FAF8F8" transform="translate(474.3359375,208.046875)"/>
<path d="M0 0 C1.051875 -0.00773438 2.10375 -0.01546875 3.1875 -0.0234375 C6.43714758 0.43692924 6.97448958 0.90554209 9 3.375 C10.00805664 5.47436523 10.00805664 5.47436523 10.91015625 7.93359375 C11.25506104 8.86252441 11.59996582 9.79145508 11.95532227 10.74853516 C12.32069092 11.75964355 12.68605957 12.77075195 13.0625 13.8125 C13.45171631 14.87001465 13.84093262 15.9275293 14.24194336 17.01708984 C18.0936051 27.52273676 21.84329451 38.0658791 25.58984375 48.609375 C27.74331845 54.66543484 29.92550462 60.71052272 32.125 66.75 C32.44154541 67.62285645 32.75809082 68.49571289 33.08422852 69.39501953 C34.78579715 74.0790103 36.51463984 78.75123822 38.2734375 83.4140625 C38.64581543 84.41131348 39.01819336 85.40856445 39.40185547 86.43603516 C40.11416501 88.34238959 40.83409579 90.24592035 41.56298828 92.14599609 C44.67004065 100.50197708 44.67004065 100.50197708 44 105.375 C41.61775072 107.75724928 40.9497963 107.69517149 37.6875 107.75 C36.92824219 107.77835937 36.16898437 107.80671875 35.38671875 107.8359375 C31.78904368 107.14113282 30.52554792 106.09724168 28 103.375 C26.09825145 99.60750523 24.64158329 95.70820342 23.1875 91.75 C22.78080078 90.6878125 22.37410156 89.625625 21.95507812 88.53125 C19 80.72388393 19 80.72388393 19 78.375 C4.81 78.375 -9.38 78.375 -24 78.375 C-24.99 81.675 -25.98 84.975 -27 88.375 C-27.92105896 91.02744847 -28.85935913 93.63678349 -29.875 96.25 C-30.22111328 97.20519531 -30.22111328 97.20519531 -30.57421875 98.1796875 C-32.25298292 102.48881479 -34.07980926 104.91419491 -38 107.375 C-41.25 107.6875 -41.25 107.6875 -44 107.375 C-45 106.375 -45 106.375 -45.34765625 103.57421875 C-45.25434979 97.7492295 -42.60235603 92.49989679 -40.4375 87.1875 C-39.51443066 84.8616663 -38.5938824 82.53483057 -37.67578125 80.20703125 C-37.22025879 79.05541504 -36.76473633 77.90379883 -36.29541016 76.71728516 C-34.16113487 71.21064577 -32.23338738 65.63723611 -30.33374023 60.04614258 C-29.01501933 56.18781908 -27.62284225 52.38433847 -26.08984375 48.60546875 C-23.25754947 41.61526918 -20.7880761 34.49571875 -18.26757812 27.38867188 C-16.33281986 21.96673433 -14.31535908 16.64467482 -12 11.375 C-11.25347989 9.31515748 -10.54152694 7.2485921 -9.84375 5.171875 C-7.5973606 0.38789758 -5.12856576 -0.03771004 0 0 Z M-3 17.375 C-4.92304517 22.56614592 -6.84350503 27.75823871 -8.76171875 32.95117188 C-9.41272575 34.71249318 -10.06440183 36.47356736 -10.71679688 38.234375 C-17.64828286 53.95411779 -17.64828286 53.95411779 -21 70.375 C-8.79 70.375 3.42 70.375 16 70.375 C14.07916443 63.33193623 12.12022628 56.48615213 9.71484375 49.62109375 C9.41308731 48.75355972 9.11133087 47.8860257 8.8004303 46.99220276 C8.16956909 45.18252807 7.53677824 43.37352495 6.90209961 41.56518555 C5.92961819 38.79000762 4.96749453 36.01137415 4.00585938 33.23242188 C3.38864114 31.46592898 2.77082457 29.69964499 2.15234375 27.93359375 C1.72259499 26.68841225 1.72259499 26.68841225 1.28416443 25.41807556 C1.01370804 24.65290115 0.74325165 23.88772675 0.46459961 23.09936523 C0.22938095 22.42638901 -0.00583771 21.75341278 -0.2481842 21.06004333 C-0.97462199 19.16195489 -0.97462199 19.16195489 -3 17.375 Z " fill="#FAF8F8" transform="translate(169,202.625)"/>
<path d="M0 0 C6.23969242 4.12934257 10.42406758 8.97958315 13 16 C13.35707031 16.845625 13.71414063 17.69125 14.08203125 18.5625 C15.36344954 23.36100252 15.28971086 27.93099779 15.25 32.875 C15.26160156 34.30779297 15.26160156 34.30779297 15.2734375 35.76953125 C15.24453202 46.30557742 13.11374992 55.82341154 5.8125 63.75 C-2.75303241 71.83556723 -13.30365663 72.46368303 -24.5 72.2734375 C-33.95756482 71.87806745 -40.58805436 67.78386824 -47 61 C-53.10113766 53.41480183 -54.525019 45.12475808 -54.375 35.625 C-54.36557373 34.70178955 -54.35614746 33.7785791 -54.34643555 32.82739258 C-54.08706473 21.10817186 -51.54650318 11.06883439 -42.875 2.75 C-30.76739061 -6.75940995 -13.49681786 -6.36406246 0 0 Z M-32.25 7.25 C-37.74971998 15.89241711 -38.20162055 23.76366626 -38.25 33.6875 C-38.270625 34.72583984 -38.29125 35.76417969 -38.3125 36.83398438 C-38.35872251 46.04959714 -37.06747057 54.71903531 -31 62 C-27.30010527 65.42917072 -24.4207651 66.29969749 -19.5 66.5 C-14.5792349 66.29969749 -11.69989473 65.42917072 -8 62 C0.6709885 50.92040359 -0.20430703 35.95752916 -1.2734375 22.578125 C-2.28505281 15.05781495 -4.47209176 9.31409562 -10.0625 4.0625 C-17.43330202 0.02044728 -26.31125149 1.31125149 -32.25 7.25 Z " fill="#FBFAFA" transform="translate(375,238)"/>
<path d="M0 0 C7.97024838 7.97024838 8.08012441 18.30158965 8.1875 28.875 C8.16872141 38.38248957 7.5633752 47.94924545 2 56 C-3.09202275 60.72830684 -6.44025353 61.35732055 -13.23828125 61.27734375 C-18.42033204 60.75693978 -20.96853563 58.23775725 -24.1875 54.375 C-28.60051386 46.15766385 -29.48028619 38.21839107 -29.375 29 C-29.38660156 27.98421875 -29.39820313 26.9684375 -29.41015625 25.921875 C-29.37479503 16.72795702 -27.89583874 8.32513298 -22 1 C-15.53528084 -4.85865174 -7.35099207 -4.02224094 0 0 Z " fill="#570303" transform="translate(366,243)"/>
<path d="M0 0 C3.96 -0.061875 7.92 -0.12375 12 -0.1875 C13.23234375 -0.21481201 14.4646875 -0.24212402 15.734375 -0.27026367 C23.62004941 -0.32963606 29.65140176 0.16097105 35.875 5.4375 C41.1237081 11.76682447 40.58308853 18.0189757 40 26 C38.73212014 31.82432313 35.1691258 35.88487559 30.26171875 39.16015625 C20.08708726 45.23879048 13.54592831 43 0 43 C0 28.81 0 14.62 0 0 Z " fill="#560202" transform="translate(247,211)"/>
<path d="M0 0 C2.28488108 2.80717624 3.65089011 5.31448632 4.80932617 8.73681641 C5.12943161 9.67103424 5.44953705 10.60525208 5.77934265 11.56777954 C6.11383926 12.56892792 6.44833588 13.57007629 6.79296875 14.6015625 C7.14386063 15.63437347 7.4947525 16.66718445 7.85627747 17.73129272 C8.59506317 19.91051235 9.33030912 22.09093477 10.06225586 24.27246094 C11.18646412 27.6219137 12.32177292 30.96744249 13.45898438 34.3125 C14.17513178 36.42946684 14.89064845 38.54664718 15.60546875 40.6640625 C15.94603806 41.66925934 16.28660736 42.67445618 16.63749695 43.71011353 C16.9481459 44.63802704 17.25879486 45.56594055 17.57885742 46.52197266 C17.85404709 47.34041656 18.12923676 48.15886047 18.4127655 49.00210571 C19 51 19 51 19 53 C6.79 53 -5.42 53 -18 53 C-17.31275466 48.87652796 -16.71207795 45.80347291 -15.32592773 42.00439453 C-14.98565048 41.06387238 -14.64537323 40.12335022 -14.29478455 39.15432739 C-13.92809158 38.15722748 -13.56139862 37.16012756 -13.18359375 36.1328125 C-12.80767593 35.09808807 -12.43175812 34.06336365 -12.04444885 32.99728394 C-10.84699337 29.70472832 -9.64235395 26.41485455 -8.4375 23.125 C-7.62257108 20.88819412 -6.80811256 18.6512168 -5.99414062 16.4140625 C-4.00154038 10.94071 -2.00304119 5.46953953 0 0 Z " fill="#570404" transform="translate(166,220)"/>
</svg>
