<svg version="1.1" id="Layer_1" xmlns="http://www.w3.org/2000/svg" xmlns:xlink="http://www.w3.org/1999/xlink" x="0px" y="0px"
	 width="100%" viewBox="0 0 1024 1024" enable-background="new 0 0 1024 1024" xml:space="preserve">
<path fill="#000000" opacity="1.000000" stroke="none" 
	d="
M1.000000,364.000000 
	C1.000000,242.666687 1.000000,121.833359 1.000000,1.000032 
	C342.333282,1.000022 683.666565,1.000022 1025.000000,1.000011 
	C1025.000000,342.333252 1025.000000,683.666504 1025.000000,1024.999756 
	C683.666809,1024.999878 342.333618,1024.999878 1.000205,1025.000000 
	C1.000000,804.833313 1.000000,584.666687 1.000000,364.000000 
M141.620361,337.709442 
	C149.302246,329.937866 156.633072,321.774963 164.752533,314.491180 
	C175.540054,304.813965 184.434219,305.087189 195.849609,314.979950 
	C202.814072,325.266785 201.585083,336.134979 192.274506,343.834290 
	C173.440811,359.408630 159.762451,378.700989 150.018951,401.009277 
	C135.878769,433.384033 125.661827,467.124115 115.003174,500.710297 
	C103.772278,536.099609 93.535210,571.848572 78.605598,605.930969 
	C68.406670,629.213745 57.266685,652.107849 50.383629,676.683105 
	C42.540901,704.684814 38.447929,733.056946 43.021114,762.947449 
	C45.491856,773.398376 46.896751,784.245361 50.609520,794.234680 
	C71.769501,851.166504 110.055893,892.949158 164.317963,920.017151 
	C216.870789,946.232422 273.315704,959.592529 330.810913,968.861938 
	C358.160553,973.271179 385.746368,976.484558 413.335144,979.063477 
	C439.499023,981.509216 465.790924,983.293152 492.055115,983.759399 
	C518.667603,984.231812 545.344971,983.310120 571.938477,981.931152 
	C596.667725,980.648804 621.422668,978.748047 645.985962,975.677124 
	C672.786560,972.326538 699.494934,967.924500 726.036621,962.890137 
	C766.101379,955.290894 805.130005,944.021362 842.803040,928.089600 
	C895.971802,905.604797 936.477844,869.433533 963.300781,818.247009 
	C972.503357,800.685730 978.632385,782.035583 981.050903,761.363953 
	C983.700195,744.130127 983.222961,726.861328 980.760437,709.707214 
	C976.793152,682.070312 968.041260,655.794983 956.305115,630.555054 
	C941.953247,599.689880 930.270752,567.862366 919.833984,535.484375 
	C906.643799,494.564941 893.083252,453.753387 878.884399,413.174561 
	C869.650879,386.786102 855.166748,363.469055 833.396973,345.257782 
	C822.227478,335.914032 820.744690,326.723114 828.954895,313.951050 
	C839.097656,305.261139 848.618103,304.974121 858.595093,313.988098 
	C867.055603,321.631927 874.860107,330.001923 883.159119,338.699951 
	C895.462280,353.754425 904.534668,370.711853 912.631592,388.974884 
	C924.355591,421.265472 936.079651,453.556030 947.776978,485.773163 
	C948.438965,484.016479 949.270996,481.923859 950.020508,479.802094 
	C959.239319,453.705688 962.703979,426.564178 963.907288,399.135773 
	C965.392273,365.282959 962.347046,331.572662 958.730591,297.974243 
	C955.799377,270.741608 952.492188,243.499786 947.905212,216.507858 
	C942.412109,184.183960 935.838318,152.021622 928.841675,119.983849 
	C924.816711,101.553558 918.561462,83.717102 910.192261,66.642212 
	C902.232971,50.403477 880.533630,40.685509 863.873474,42.554920 
	C848.585876,44.270329 835.108459,50.267418 822.377502,58.253010 
	C792.802490,76.804314 769.038269,101.734123 746.840820,128.246353 
	C713.000793,168.664154 684.158203,212.546967 657.648254,258.020294 
	C653.033508,265.936066 646.098877,269.690094 636.929321,268.914459 
	C633.979370,268.664917 631.087524,267.792328 628.142456,267.410675 
	C611.381653,265.238586 594.643066,262.839081 577.837769,261.083252 
	C562.472229,259.477875 547.049194,258.194244 531.618652,257.510132 
	C518.491577,256.928162 505.287201,256.836884 492.172119,257.546600 
	C474.267975,258.515503 456.387024,260.174042 438.550385,262.052124 
	C422.247284,263.768738 405.969910,265.871124 389.770447,268.379852 
	C379.529785,269.965790 371.417664,266.809692 366.229797,257.845673 
	C345.476929,221.987244 323.046722,187.221359 298.141510,154.096390 
	C274.563751,122.736992 249.412415,92.777283 218.162766,68.624275 
	C201.347153,55.627399 183.529083,44.135143 161.524460,42.606434 
	C143.656830,41.365131 128.401321,47.775150 118.995262,63.254784 
	C112.965065,73.178741 108.864746,84.450729 105.060410,95.517578 
	C95.287605,123.946739 89.342979,153.376846 84.155830,182.916428 
	C80.254677,205.132599 77.018158,227.474167 73.924324,249.820633 
	C71.510002,267.259064 69.542267,284.768097 67.792488,302.287354 
	C65.941338,320.821472 64.018944,339.378174 63.140850,357.972870 
	C61.812611,386.100006 62.085384,414.269745 67.105873,442.093536 
	C69.582275,455.817932 73.250488,469.327240 76.379425,482.933868 
	C76.920624,482.876831 77.461823,482.819824 78.003021,482.762787 
	C78.371544,481.909851 78.813339,481.080597 79.097351,480.200378 
	C82.248146,470.435791 85.097778,460.563965 88.563232,450.912994 
	C96.554550,428.658020 104.841637,406.509277 113.587479,383.841034 
	C120.589409,367.279968 130.108459,352.225708 141.620361,337.709442 
z"/>
<path fill="#FFB850" opacity="1.000000" stroke="none" 
	d="
M43.140244,762.146240 
	C38.447929,733.056946 42.540901,704.684814 50.383629,676.683105 
	C57.266685,652.107849 68.406670,629.213745 78.605598,605.930969 
	C93.535210,571.848572 103.772278,536.099609 115.003174,500.710297 
	C125.661827,467.124115 135.878769,433.384033 150.018951,401.009277 
	C159.762451,378.700989 173.440811,359.408630 192.274506,343.834290 
	C201.585083,336.134979 202.814072,325.266785 195.935455,314.348602 
	C206.634430,306.430939 217.247528,299.144592 228.122925,292.091278 
	C235.757599,302.136139 244.262344,304.388062 255.516327,299.282867 
	C271.805176,291.893707 288.795502,287.911987 306.740448,287.971863 
	C322.132477,288.023224 331.753876,272.775116 324.933472,258.876434 
	C307.259918,222.860977 288.073242,187.692581 264.807373,154.914139 
	C249.822906,133.803040 233.662231,113.707191 212.596741,98.184975 
	C201.317337,89.873695 189.058350,83.646385 174.810074,82.685997 
	C169.884537,82.354004 164.799973,82.654770 159.933990,83.503349 
	C147.381989,85.692261 137.471466,101.632530 149.020660,117.186050 
	C139.343246,134.921310 134.435257,153.920700 130.042847,173.042282 
	C122.488190,205.930222 117.566917,239.256424 113.837555,272.783844 
	C110.784973,300.226837 107.835884,327.680634 109.204575,355.328552 
	C109.684868,365.030487 111.696411,374.656647 113.008743,384.317413 
	C104.841637,406.509277 96.554550,428.658020 88.563232,450.912994 
	C85.097778,460.563965 82.248146,470.435791 79.097351,480.200378 
	C78.813339,481.080597 78.371544,481.909851 78.003021,482.762787 
	C77.461823,482.819824 76.920624,482.876831 76.379425,482.933868 
	C73.250488,469.327240 69.582275,455.817932 67.105873,442.093536 
	C62.085384,414.269745 61.812611,386.100006 63.140850,357.972870 
	C64.018944,339.378174 65.941338,320.821472 67.792488,302.287354 
	C69.542267,284.768097 71.510002,267.259064 73.924324,249.820633 
	C77.018158,227.474167 80.254677,205.132599 84.155830,182.916428 
	C89.342979,153.376846 95.287605,123.946739 105.060410,95.517578 
	C108.864746,84.450729 112.965065,73.178741 118.995262,63.254784 
	C128.401321,47.775150 143.656830,41.365131 161.524460,42.606434 
	C183.529083,44.135143 201.347153,55.627399 218.162766,68.624275 
	C249.412415,92.777283 274.563751,122.736992 298.141510,154.096390 
	C323.046722,187.221359 345.476929,221.987244 366.229797,257.845673 
	C371.417664,266.809692 379.529785,269.965790 389.770447,268.379852 
	C405.969910,265.871124 422.247284,263.768738 438.550385,262.052124 
	C456.387024,260.174042 474.267975,258.515503 492.172119,257.546600 
	C505.287201,256.836884 518.491577,256.928162 531.618652,257.510132 
	C547.049194,258.194244 562.472229,259.477875 577.837769,261.083252 
	C594.643066,262.839081 611.381653,265.238586 628.142456,267.410675 
	C631.087524,267.792328 633.979370,268.664917 636.929321,268.914459 
	C646.098877,269.690094 653.033508,265.936066 657.648254,258.020294 
	C684.158203,212.546967 713.000793,168.664154 746.840820,128.246353 
	C769.038269,101.734123 792.802490,76.804314 822.377502,58.253010 
	C835.108459,50.267418 848.585876,44.270329 863.873474,42.554920 
	C880.533630,40.685509 902.232971,50.403477 910.192261,66.642212 
	C918.561462,83.717102 924.816711,101.553558 928.841675,119.983849 
	C935.838318,152.021622 942.412109,184.183960 947.905212,216.507858 
	C952.492188,243.499786 955.799377,270.741608 958.730591,297.974243 
	C962.347046,331.572662 965.392273,365.282959 963.907288,399.135773 
	C962.703979,426.564178 959.239319,453.705688 950.020508,479.802094 
	C949.270996,481.923859 948.438965,484.016479 947.776978,485.773163 
	C936.079651,453.556030 924.355591,421.265472 912.821045,388.445557 
	C914.618225,376.333038 917.221497,364.780823 917.583069,353.158875 
	C918.040588,338.450958 916.982666,323.665955 916.009583,308.951782 
	C914.995728,293.620758 913.846436,278.261108 911.783936,263.045807 
	C908.630676,239.784912 905.115173,216.550659 900.886536,193.463898 
	C895.912231,166.305771 889.953003,139.335663 876.588562,114.412689 
	C884.682068,99.039497 877.124573,84.929504 860.197266,82.822159 
	C848.383301,81.351402 837.361450,83.825722 826.825867,88.899345 
	C808.115112,97.909821 793.588379,112.086594 780.387512,127.639664 
	C746.429321,167.648788 721.432129,213.277695 698.552673,260.130493 
	C692.159119,273.223297 702.403442,288.011871 717.088501,287.971771 
	C734.847778,287.923309 751.710327,291.717255 767.854675,299.031921 
	C780.300842,304.671021 789.073547,302.101227 796.824524,291.081116 
	C798.878174,292.491089 800.766418,293.521179 802.474487,294.793182 
	C811.143372,301.248901 819.765503,307.767365 828.404053,314.263855 
	C820.744690,326.723114 822.227478,335.914032 833.396973,345.257782 
	C855.166748,363.469055 869.650879,386.786102 878.884399,413.174561 
	C893.083252,453.753387 906.643799,494.564941 919.833984,535.484375 
	C930.270752,567.862366 941.953247,599.689880 956.305115,630.555054 
	C968.041260,655.794983 976.793152,682.070312 980.760437,709.707214 
	C983.222961,726.861328 983.700195,744.130127 980.702637,761.996338 
	C978.264160,765.377686 976.174011,768.126709 974.056274,770.489868 
	C965.582642,736.747742 949.097839,707.849854 925.559570,682.890259 
	C893.565918,648.964539 854.461060,626.184998 811.175659,609.933228 
	C774.017883,595.982239 735.278809,590.668579 695.947449,587.935974 
	C672.289246,586.292236 649.389465,580.697937 627.048523,572.512817 
	C600.903870,562.934204 583.328430,545.516418 574.360474,519.057983 
	C568.182251,500.830475 564.545776,482.108429 562.102844,463.126831 
	C558.877380,438.064667 556.334106,412.912170 552.904480,387.879791 
	C550.824890,372.701141 547.159851,357.910370 539.367126,344.316772 
	C526.854553,322.489777 493.427948,321.037476 480.602020,346.013184 
	C476.537567,353.927826 472.692566,362.481049 471.308899,371.150879 
	C466.596283,400.678833 463.000488,430.385620 459.029205,460.030975 
	C456.176727,481.324524 452.729187,502.472504 444.933380,522.654785 
	C437.191528,542.697327 424.758362,558.362976 404.759613,567.590820 
	C382.158905,578.019287 358.437714,584.153381 333.836731,586.974243 
	C318.474609,588.735718 302.980042,589.377625 287.638580,591.278076 
	C241.697937,596.968811 198.363861,610.828613 158.143295,633.945129 
	C130.038071,650.098328 104.855385,669.813049 84.403358,695.207153 
	C66.928116,716.905151 54.674103,741.276917 46.728821,767.827271 
	C45.349487,765.813354 44.244865,763.979797 43.140244,762.146240 
M663.926331,481.469421 
	C660.112244,489.255829 658.529541,497.481842 658.813110,506.140167 
	C659.487732,526.742310 672.552795,545.460144 691.571777,552.909485 
	C711.530334,560.726807 733.968628,555.964050 748.677734,540.787964 
	C763.327881,525.672729 767.763733,502.894806 759.295044,483.843475 
	C750.884033,464.921661 736.152161,453.757263 715.504639,452.175934 
	C692.495972,450.413818 675.410767,460.679108 663.926331,481.469421 
M335.133148,553.809753 
	C336.670837,553.177551 338.229431,552.591492 339.743042,551.906128 
	C363.200226,541.285278 375.529449,514.541260 368.346344,489.888580 
	C360.995148,464.658966 336.269135,448.465881 310.882019,452.255249 
	C279.976227,456.868286 260.055786,485.924286 266.990143,516.275940 
	C273.783386,546.009827 304.609192,563.270203 335.133148,553.809753 
M284.156342,426.420563 
	C292.313812,432.320068 301.791901,434.893677 311.398041,436.996979 
	C322.878296,439.510651 334.329346,442.539185 345.961609,443.858978 
	C355.608551,444.953491 361.268402,438.604614 362.061249,428.808563 
	C362.875000,418.754395 359.186890,410.110748 353.603149,402.256653 
	C342.087769,386.059082 326.068390,377.530518 306.358063,376.138458 
	C296.133942,375.416351 286.181976,376.694733 278.984528,385.118378 
	C269.960327,395.680023 267.362915,413.321198 284.156342,426.420563 
M698.553406,440.036682 
	C705.292542,438.229309 712.202942,436.886749 718.722473,434.483521 
	C725.210693,432.091827 731.803467,429.358673 737.456543,425.474396 
	C745.772095,419.760712 750.200134,411.303131 748.687195,400.922394 
	C747.030518,389.556061 741.260437,380.981689 729.727112,377.539551 
	C719.296326,374.426483 708.967041,376.252319 698.768677,379.027374 
	C681.247925,383.794861 659.507874,403.690125 658.574219,424.791931 
	C658.065125,436.297943 663.897156,445.118317 675.244202,444.001862 
	C682.797974,443.258606 690.252991,441.511871 698.553406,440.036682 
z"/>
<path fill="#FEE1C5" opacity="1.000000" stroke="none" 
	d="
M974.083862,770.875732 
	C976.174011,768.126709 978.264160,765.377686 980.596802,762.425049 
	C978.632385,782.035583 972.503357,800.685730 963.300781,818.247009 
	C936.477844,869.433533 895.971802,905.604797 842.803040,928.089600 
	C805.130005,944.021362 766.101379,955.290894 726.036621,962.890137 
	C699.494934,967.924500 672.786560,972.326538 645.985962,975.677124 
	C621.422668,978.748047 596.667725,980.648804 571.938477,981.931152 
	C545.344971,983.310120 518.667603,984.231812 492.055115,983.759399 
	C465.790924,983.293152 439.499023,981.509216 413.335144,979.063477 
	C385.746368,976.484558 358.160553,973.271179 330.810913,968.861938 
	C273.315704,959.592529 216.870789,946.232422 164.317963,920.017151 
	C110.055893,892.949158 71.769501,851.166504 50.609520,794.234680 
	C46.896751,784.245361 45.491856,773.398376 43.080681,762.546875 
	C44.244865,763.979797 45.349487,765.813354 46.776646,768.180603 
	C47.677841,769.903992 48.095364,771.210449 48.859692,772.265625 
	C57.905430,784.753479 66.536812,797.579346 76.200600,809.572266 
	C89.367256,825.912476 104.695076,840.128052 122.067513,852.033875 
	C148.624680,870.234070 177.805634,883.061279 208.087448,893.444946 
	C239.047684,904.061035 270.718536,912.213745 302.950806,917.851318 
	C328.861633,922.383179 354.890259,926.331909 380.963562,929.812927 
	C398.674530,932.177551 416.528229,933.655701 434.363342,934.859863 
	C455.386475,936.279236 476.449829,937.292053 497.512512,937.864563 
	C509.955780,938.202759 522.435242,937.451050 534.891724,937.003418 
	C550.651123,936.437073 566.407959,935.766174 582.157837,934.977844 
	C592.753845,934.447449 603.379089,934.028198 613.914978,932.867004 
	C635.292542,930.510986 656.728027,928.355408 677.938538,924.887512 
	C705.865662,920.321350 733.789917,915.407410 761.367004,909.115662 
	C794.601257,901.533203 826.999512,891.033386 858.035645,876.588318 
	C888.441895,862.436218 916.224609,844.856934 939.012451,819.745056 
	C951.005127,806.529175 962.264832,792.880005 971.700256,777.757385 
	C972.953064,775.749451 973.311279,773.183350 974.083862,770.875732 
z"/>
<path fill="#FFF4E8" opacity="1.000000" stroke="none" 
	d="
M876.444275,114.774879 
	C889.953003,139.335663 895.912231,166.305771 900.886536,193.463898 
	C905.115173,216.550659 908.630676,239.784912 911.783936,263.045807 
	C913.846436,278.261108 914.995728,293.620758 916.009583,308.951782 
	C916.982666,323.665955 918.040588,338.450958 917.583069,353.158875 
	C917.221497,364.780823 914.618225,376.333038 912.713013,388.143616 
	C904.534668,370.711853 895.462280,353.754425 883.079834,337.951599 
	C879.580444,311.878510 875.163330,286.739014 867.804077,262.231445 
	C863.835632,249.016251 859.163269,236.082809 850.928772,224.662842 
	C844.651978,215.957901 832.088806,213.375412 822.619629,217.968353 
	C818.685913,210.758194 812.932861,206.726196 804.976440,207.120682 
	C799.426086,207.395874 793.866394,208.531174 788.430176,209.795013 
	C781.706665,211.358093 775.106628,213.452011 767.969116,215.452209 
	C768.479736,214.216248 768.627563,213.578400 768.969421,213.071335 
	C780.399658,196.116043 791.296082,178.763214 803.470337,162.358948 
	C813.123169,149.352249 824.265259,137.411499 837.995667,128.356934 
	C843.639771,124.634941 849.513428,121.735382 856.748108,122.741135 
	C864.690430,123.845268 871.250305,120.824524 876.444275,114.774879 
z"/>
<path fill="#FEF3E8" opacity="1.000000" stroke="none" 
	d="
M113.298111,384.079224 
	C111.696411,374.656647 109.684868,365.030487 109.204575,355.328552 
	C107.835884,327.680634 110.784973,300.226837 113.837555,272.783844 
	C117.566917,239.256424 122.488190,205.930222 130.042847,173.042282 
	C134.435257,153.920700 139.343246,134.921310 149.329926,117.313515 
	C154.381958,121.477173 159.896027,123.883667 166.130112,122.791061 
	C172.348373,121.701233 177.951447,123.088943 182.657776,126.521843 
	C190.540359,132.271606 198.503372,138.167007 205.287766,145.118393 
	C225.487457,165.815277 241.080780,189.984390 255.802277,214.725708 
	C255.977615,215.020370 255.824097,215.510696 255.824097,215.500153 
	C245.773987,212.852554 235.893387,210.148453 225.958694,207.660278 
	C215.596710,205.065094 207.321594,208.143127 201.009766,217.152084 
	C189.826843,214.482666 179.831268,215.133209 172.833389,224.966705 
	C169.391479,229.803284 166.437805,235.119095 164.078430,240.570847 
	C155.062027,261.404816 149.949707,283.380005 146.028275,305.641968 
	C144.134872,316.390839 142.678589,327.216644 141.024384,338.007629 
	C130.108459,352.225708 120.589409,367.279968 113.298111,384.079224 
z"/>
<path fill="#FED6B5" opacity="1.000000" stroke="none" 
	d="
M141.322372,337.858521 
	C142.678589,327.216644 144.134872,316.390839 146.028275,305.641968 
	C149.949707,283.380005 155.062027,261.404816 164.078430,240.570847 
	C166.437805,235.119095 169.391479,229.803284 172.833389,224.966705 
	C179.831268,215.133209 189.826843,214.482666 200.898895,217.528748 
	C195.958038,232.113098 202.832230,243.626129 217.597092,246.942551 
	C228.783279,249.455139 239.694809,253.190521 250.728561,256.381775 
	C250.658585,256.885956 250.588623,257.390106 250.518646,257.894287 
	C247.199646,259.322479 243.865173,260.715912 240.564346,262.184906 
	C226.652985,268.376068 222.676849,277.684235 227.860641,291.858276 
	C217.247528,299.144592 206.634430,306.430939 195.806427,314.017761 
	C184.434219,305.087189 175.540054,304.813965 164.752533,314.491180 
	C156.633072,321.774963 149.302246,329.937866 141.322372,337.858521 
z"/>
<path fill="#FED6B5" opacity="1.000000" stroke="none" 
	d="
M822.940247,218.107376 
	C832.088806,213.375412 844.651978,215.957901 850.928772,224.662842 
	C859.163269,236.082809 863.835632,249.016251 867.804077,262.231445 
	C875.163330,286.739014 879.580444,311.878510 882.977722,337.626892 
	C874.860107,330.001923 867.055603,321.631927 858.595093,313.988098 
	C848.618103,304.974121 839.097656,305.261139 828.679443,314.107452 
	C819.765503,307.767365 811.143372,301.248901 802.474487,294.793182 
	C800.766418,293.521179 798.878174,292.491089 796.947937,290.673828 
	C800.869080,277.814240 796.774475,268.336090 785.117188,262.991302 
	C781.229919,261.208984 777.304565,259.509827 772.610962,257.423431 
	C779.778992,254.779266 786.095459,252.249390 792.549194,250.139343 
	C796.794617,248.751328 801.197815,247.744995 805.599854,246.955322 
	C821.073669,244.179489 827.770752,233.140839 822.940247,218.107376 
z"/>
<path fill="#FFF4E9" opacity="1.000000" stroke="none" 
	d="
M974.056274,770.489807 
	C973.311279,773.183350 972.953064,775.749451 971.700256,777.757385 
	C962.264832,792.880005 951.005127,806.529175 939.012451,819.745056 
	C916.224609,844.856934 888.441895,862.436218 858.035645,876.588318 
	C826.999512,891.033386 794.601257,901.533203 761.367004,909.115662 
	C733.789917,915.407410 705.865662,920.321350 677.938538,924.887512 
	C656.728027,928.355408 635.292542,930.510986 613.914978,932.867004 
	C603.379089,934.028198 592.753845,934.447449 582.157837,934.977844 
	C566.407959,935.766174 550.651123,936.437073 534.891724,937.003418 
	C522.435242,937.451050 509.955780,938.202759 497.512512,937.864563 
	C476.449829,937.292053 455.386475,936.279236 434.363342,934.859863 
	C416.528229,933.655701 398.674530,932.177551 380.963562,929.812927 
	C354.890259,926.331909 328.861633,922.383179 302.950806,917.851318 
	C270.718536,912.213745 239.047684,904.061035 208.087448,893.444946 
	C177.805634,883.061279 148.624680,870.234070 122.067513,852.033875 
	C104.695076,840.128052 89.367256,825.912476 76.200600,809.572266 
	C66.536812,797.579346 57.905430,784.753479 48.859692,772.265625 
	C48.095364,771.210449 47.677841,769.903992 47.051353,768.360962 
	C54.674103,741.276917 66.928116,716.905151 84.403358,695.207153 
	C104.855385,669.813049 130.038071,650.098328 158.143295,633.945129 
	C198.363861,610.828613 241.697937,596.968811 287.638580,591.278076 
	C302.980042,589.377625 318.474609,588.735718 333.836731,586.974243 
	C358.437714,584.153381 382.158905,578.019287 404.759613,567.590820 
	C424.758362,558.362976 437.191528,542.697327 444.933380,522.654785 
	C452.729187,502.472504 456.176727,481.324524 459.029205,460.030975 
	C463.000488,430.385620 466.596283,400.678833 471.308899,371.150879 
	C472.692566,362.481049 476.537567,353.927826 480.602020,346.013184 
	C493.427948,321.037476 526.854553,322.489777 539.367126,344.316772 
	C547.159851,357.910370 550.824890,372.701141 552.904480,387.879791 
	C556.334106,412.912170 558.877380,438.064667 562.102844,463.126831 
	C564.545776,482.108429 568.182251,500.830475 574.360474,519.057983 
	C583.328430,545.516418 600.903870,562.934204 627.048523,572.512817 
	C649.389465,580.697937 672.289246,586.292236 695.947449,587.935974 
	C735.278809,590.668579 774.017883,595.982239 811.175659,609.933228 
	C854.461060,626.184998 893.565918,648.964539 925.559570,682.890259 
	C949.097839,707.849854 965.582642,736.747742 974.056274,770.489807 
M529.915955,624.638794 
	C513.795410,625.207336 497.586090,624.918762 481.578156,626.575562 
	C464.163055,628.377991 447.312469,633.100891 432.198944,642.617188 
	C409.698181,656.784851 405.890228,679.558228 423.043243,699.775757 
	C433.554291,712.164673 447.480621,719.730164 462.571106,724.929138 
	C472.872284,728.478210 483.567505,730.883606 494.270203,733.851257 
	C494.270203,743.030518 494.270203,752.612427 494.270203,762.583740 
	C492.362732,762.667480 490.727020,762.718872 489.093842,762.814148 
	C466.148041,764.152954 443.161011,765.006165 420.265656,766.942566 
	C371.082642,771.102295 322.643524,779.693115 275.082947,793.017639 
	C249.300064,800.240967 223.875870,808.511108 199.643417,820.032532 
	C189.211090,824.992615 185.223831,836.408081 189.917038,846.549072 
	C194.574402,856.612671 205.859558,860.717773 216.456573,856.177979 
	C220.425659,854.477661 224.326523,852.612000 228.329865,850.998840 
	C277.190979,831.310425 328.089508,819.558777 380.061615,811.885071 
	C427.780823,804.839294 475.768555,802.068909 523.957642,802.471924 
	C570.499268,802.861084 616.803406,806.365295 662.748535,813.984680 
	C714.227844,822.521973 764.652283,834.829285 812.543823,856.154968 
	C823.079346,860.846313 834.412476,856.622314 839.083252,846.559143 
	C843.781311,836.437195 839.790283,825.093811 829.359497,820.054810 
	C822.340637,816.664062 815.138000,813.599670 807.851868,810.824463 
	C731.852722,781.877625 652.685303,768.807129 571.891479,764.021545 
	C559.620178,763.294678 547.325256,762.967590 534.815796,762.446167 
	C534.815796,752.561768 534.815796,742.970886 534.815796,733.310669 
	C541.440857,731.849854 547.975342,730.683533 554.355774,728.950195 
	C573.053101,723.870911 590.411743,716.113525 604.241394,702.051636 
	C620.452820,685.567993 621.415222,665.032959 606.352905,650.211670 
	C601.808960,645.740479 596.242859,641.999084 590.559998,639.051025 
	C571.898132,629.369995 551.557922,626.131775 529.915955,624.638794 
M314.907471,690.912659 
	C321.846191,691.464966 327.429077,688.935608 332.368103,684.046997 
	C340.526550,675.972046 348.560547,667.678833 357.418274,660.418640 
	C397.002228,627.973572 442.065369,607.976196 493.252258,603.236877 
	C540.383301,598.873047 584.925171,608.428589 626.749939,630.507446 
	C653.170715,644.454712 676.788818,662.106506 697.016296,684.214111 
	C704.798218,692.719360 716.888977,693.305603 725.238892,685.943176 
	C733.536926,678.626343 734.257019,666.591675 726.877441,657.691406 
	C725.284241,655.769958 723.600891,653.906738 721.816528,652.162537 
	C648.561096,580.552307 562.242859,548.611267 460.045990,568.059875 
	C398.317261,579.807190 346.551819,610.620667 303.599792,656.236816 
	C291.319550,669.278809 296.650146,686.030579 314.907471,690.912659 
z"/>
<path fill="#010101" opacity="1.000000" stroke="none" 
	d="
M822.619629,217.968353 
	C827.770752,233.140839 821.073669,244.179489 805.599854,246.955322 
	C801.197815,247.744995 796.794617,248.751328 792.549194,250.139343 
	C786.095459,252.249390 779.778992,254.779266 772.610962,257.423431 
	C777.304565,259.509827 781.229919,261.208984 785.117188,262.991302 
	C796.774475,268.336090 800.869080,277.814240 796.699402,290.405457 
	C789.073547,302.101227 780.300842,304.671021 767.854675,299.031921 
	C751.710327,291.717255 734.847778,287.923309 717.088501,287.971771 
	C702.403442,288.011871 692.159119,273.223297 698.552673,260.130493 
	C721.432129,213.277695 746.429321,167.648788 780.387512,127.639664 
	C793.588379,112.086594 808.115112,97.909821 826.825867,88.899345 
	C837.361450,83.825722 848.383301,81.351402 860.197266,82.822159 
	C877.124573,84.929504 884.682068,99.039497 876.588562,114.412689 
	C871.250305,120.824524 864.690430,123.845268 856.748108,122.741135 
	C849.513428,121.735382 843.639771,124.634941 837.995667,128.356934 
	C824.265259,137.411499 813.123169,149.352249 803.470337,162.358948 
	C791.296082,178.763214 780.399658,196.116043 768.969421,213.071335 
	C768.627563,213.578400 768.479736,214.216248 767.969116,215.452209 
	C775.106628,213.452011 781.706665,211.358093 788.430176,209.795013 
	C793.866394,208.531174 799.426086,207.395874 804.976440,207.120682 
	C812.932861,206.726196 818.685913,210.758194 822.619629,217.968353 
z"/>
<path fill="#020101" opacity="1.000000" stroke="none" 
	d="
M228.122925,292.091278 
	C222.676849,277.684235 226.652985,268.376068 240.564346,262.184906 
	C243.865173,260.715912 247.199646,259.322479 250.518646,257.894287 
	C250.588623,257.390106 250.658585,256.885956 250.728561,256.381775 
	C239.694809,253.190521 228.783279,249.455139 217.597092,246.942551 
	C202.832230,243.626129 195.958038,232.113098 201.344635,217.603668 
	C207.321594,208.143127 215.596710,205.065094 225.958694,207.660278 
	C235.893387,210.148453 245.773987,212.852554 255.824097,215.500153 
	C255.824097,215.510696 255.977615,215.020370 255.802277,214.725708 
	C241.080780,189.984390 225.487457,165.815277 205.287766,145.118393 
	C198.503372,138.167007 190.540359,132.271606 182.657776,126.521843 
	C177.951447,123.088943 172.348373,121.701233 166.130112,122.791061 
	C159.896027,123.883667 154.381958,121.477173 149.481613,116.983803 
	C137.471466,101.632530 147.381989,85.692261 159.933990,83.503349 
	C164.799973,82.654770 169.884537,82.354004 174.810074,82.685997 
	C189.058350,83.646385 201.317337,89.873695 212.596741,98.184975 
	C233.662231,113.707191 249.822906,133.803040 264.807373,154.914139 
	C288.073242,187.692581 307.259918,222.860977 324.933472,258.876434 
	C331.753876,272.775116 322.132477,288.023224 306.740448,287.971863 
	C288.795502,287.911987 271.805176,291.893707 255.516327,299.282867 
	C244.262344,304.388062 235.757599,302.136139 228.122925,292.091278 
z"/>
<path fill="#010100" opacity="1.000000" stroke="none" 
	d="
M664.054993,481.118927 
	C675.410767,460.679108 692.495972,450.413818 715.504639,452.175934 
	C736.152161,453.757263 750.884033,464.921661 759.295044,483.843475 
	C767.763733,502.894806 763.327881,525.672729 748.677734,540.787964 
	C733.968628,555.964050 711.530334,560.726807 691.571777,552.909485 
	C672.552795,545.460144 659.487732,526.742310 658.813110,506.140167 
	C658.529541,497.481842 660.112244,489.255829 664.054993,481.118927 
z"/>
<path fill="#010100" opacity="1.000000" stroke="none" 
	d="
M334.745667,553.903625 
	C304.609192,563.270203 273.783386,546.009827 266.990143,516.275940 
	C260.055786,485.924286 279.976227,456.868286 310.882019,452.255249 
	C336.269135,448.465881 360.995148,464.658966 368.346344,489.888580 
	C375.529449,514.541260 363.200226,541.285278 339.743042,551.906128 
	C338.229431,552.591492 336.670837,553.177551 334.745667,553.903625 
z"/>
<path fill="#FFE1C4" opacity="1.000000" stroke="none" 
	d="
M283.872803,426.200317 
	C267.362915,413.321198 269.960327,395.680023 278.984528,385.118378 
	C286.181976,376.694733 296.133942,375.416351 306.358063,376.138458 
	C326.068390,377.530518 342.087769,386.059082 353.603149,402.256653 
	C359.186890,410.110748 362.875000,418.754395 362.061249,428.808563 
	C361.268402,438.604614 355.608551,444.953491 345.961609,443.858978 
	C334.329346,442.539185 322.878296,439.510651 311.398041,436.996979 
	C301.791901,434.893677 292.313812,432.320068 283.872803,426.200317 
z"/>
<path fill="#FFE1C4" opacity="1.000000" stroke="none" 
	d="
M698.152832,440.125488 
	C690.252991,441.511871 682.797974,443.258606 675.244202,444.001862 
	C663.897156,445.118317 658.065125,436.297943 658.574219,424.791931 
	C659.507874,403.690125 681.247925,383.794861 698.768677,379.027374 
	C708.967041,376.252319 719.296326,374.426483 729.727112,377.539551 
	C741.260437,380.981689 747.030518,389.556061 748.687195,400.922394 
	C750.200134,411.303131 745.772095,419.760712 737.456543,425.474396 
	C731.803467,429.358673 725.210693,432.091827 718.722473,434.483521 
	C712.202942,436.886749 705.292542,438.229309 698.152832,440.125488 
z"/>
<path fill="#010101" opacity="1.000000" stroke="none" 
	d="
M530.378967,624.673218 
	C551.557922,626.131775 571.898132,629.369995 590.559998,639.051025 
	C596.242859,641.999084 601.808960,645.740479 606.352905,650.211670 
	C621.415222,665.032959 620.452820,685.567993 604.241394,702.051636 
	C590.411743,716.113525 573.053101,723.870911 554.355774,728.950195 
	C547.975342,730.683533 541.440857,731.849854 534.815796,733.310669 
	C534.815796,742.970886 534.815796,752.561768 534.815796,762.446167 
	C547.325256,762.967590 559.620178,763.294678 571.891479,764.021545 
	C652.685303,768.807129 731.852722,781.877625 807.851868,810.824463 
	C815.138000,813.599670 822.340637,816.664062 829.359497,820.054810 
	C839.790283,825.093811 843.781311,836.437195 839.083252,846.559143 
	C834.412476,856.622314 823.079346,860.846313 812.543823,856.154968 
	C764.652283,834.829285 714.227844,822.521973 662.748535,813.984680 
	C616.803406,806.365295 570.499268,802.861084 523.957642,802.471924 
	C475.768555,802.068909 427.780823,804.839294 380.061615,811.885071 
	C328.089508,819.558777 277.190979,831.310425 228.329865,850.998840 
	C224.326523,852.612000 220.425659,854.477661 216.456573,856.177979 
	C205.859558,860.717773 194.574402,856.612671 189.917038,846.549072 
	C185.223831,836.408081 189.211090,824.992615 199.643417,820.032532 
	C223.875870,808.511108 249.300064,800.240967 275.082947,793.017639 
	C322.643524,779.693115 371.082642,771.102295 420.265656,766.942566 
	C443.161011,765.006165 466.148041,764.152954 489.093842,762.814148 
	C490.727020,762.718872 492.362732,762.667480 494.270203,762.583740 
	C494.270203,752.612427 494.270203,743.030518 494.270203,733.851257 
	C483.567505,730.883606 472.872284,728.478210 462.571106,724.929138 
	C447.480621,719.730164 433.554291,712.164673 423.043243,699.775757 
	C405.890228,679.558228 409.698181,656.784851 432.198944,642.617188 
	C447.312469,633.100891 464.163055,628.377991 481.578156,626.575562 
	C497.586090,624.918762 513.795410,625.207336 530.378967,624.673218 
z"/>
<path fill="#020202" opacity="1.000000" stroke="none" 
	d="
M314.486206,690.865967 
	C296.650146,686.030579 291.319550,669.278809 303.599792,656.236816 
	C346.551819,610.620667 398.317261,579.807190 460.045990,568.059875 
	C562.242859,548.611267 648.561096,580.552307 721.816528,652.162537 
	C723.600891,653.906738 725.284241,655.769958 726.877441,657.691406 
	C734.257019,666.591675 733.536926,678.626343 725.238892,685.943176 
	C716.888977,693.305603 704.798218,692.719360 697.016296,684.214111 
	C676.788818,662.106506 653.170715,644.454712 626.749939,630.507446 
	C584.925171,608.428589 540.383301,598.873047 493.252258,603.236877 
	C442.065369,607.976196 397.002228,627.973572 357.418274,660.418640 
	C348.560547,667.678833 340.526550,675.972046 332.368103,684.046997 
	C327.429077,688.935608 321.846191,691.464966 314.486206,690.865967 
z"/>
</svg>